PathFileType	4	(X/Y/Z)	Kaydara																																																																																																																									
DataRate	CameraRate	NumFrames	NumMarkers	Units	OrigDataRate	OrigDataStartFrame	OrigNumFrames																																																																																																																					
30	30	5	41	mm	30	68	104																																																																																																																					
Frame#	Time	EMLA_LFHD			EMLA_RFHD			EMLA_LBHD			EMLA_RBHD			EMLA_LFTShould			EMLA_RFTShould			EMLA_LRRShould			EMLA_RRRShould			EMLA_T10			EMLA_STRN			EMLA_TRUN			EMLA_LSHO			EMLA_LUPA			EMLA_LELB			EMLA_LFRM			EMLA_LWRA			EMLA_LWRB			EMLA_LFIN			EMLA_RSHO			EMLA_RUPA			EMLA_RELB			EMLA_RFRM			EMLA_RWRA			EMLA_RWRB			EMLA_RFIN			EMLA_LFWT			EMLA_RFWT			EMLA_LBWT			EMLA_RBWT			EMLA_LTHI			EMLA_LKNE			EMLA_LSHN			EMLA_LANK			EMLA_LHEE			EMLA_LTOE			EMLA_RTHI			EMLA_RKNE			EMLA_RSHN			EMLA_RANK			EMLA_RHEE			EMLA_RTOE		
		X1	Y1	Z1	X2	Y2	Z2	X3	Y3	Z3	X4	Y4	Z4	X5	Y5	Z5	X6	Y6	Z6	X7	Y7	Z7	X8	Y8	Z8	X9	Y9	Z9	X10	Y10	Z10	X11	Y11	Z11	X12	Y12	Z12	X13	Y13	Z13	X14	Y14	Z14	X15	Y15	Z15	X16	Y16	Z16	X17	Y17	Z17	X18	Y18	Z18	X19	Y19	Z19	X20	Y20	Z20	X21	Y21	Z21	X22	Y22	Z22	X23	Y23	Z23	X24	Y24	Z24	X25	Y25	Z25	X26	Y26	Z26	X27	Y27	Z27	X28	Y28	Z28	X29	Y29	Z29	X30	Y30	Z30	X31	Y31	Z31	X32	Y32	Z32	X33	Y33	Z33	X34	Y34	Z34	X35	Y35	Z35	X36	Y36	Z36	X37	Y37	Z37	X38	Y38	Z38	X39	Y39	Z39	X40	Y40	Z40	X41	Y41	Z41
																																																																																																																												
53	2.233	248.15487	1576.85303	-919.64905	78.84908	1553.26462	-924.66408	261.00655	1610.28763	-1066.05827	68.13937	1586.91971	-1073.20328	264.55297	1370.98175	-1027.44331	116.96168	1356.18362	-1021.72272	249.42492	1447.41898	-1164.42291	92.99914	1432.45667	-1158.87764	186.46692	1288.97583	-1251.16905	195.04982	1290.46814	-1001.40877	194.41612	1185.13557	-1008.29002	383.84319	1406.69754	-1080.03639	464.23744	1254.68773	-1151.5889	503.2552	1123.42377	-1200.75676	513.53687	988.2029	-1235.14725	433.80363	823.41934	-1204.51324	496.55586	824.80759	-1263.30139	486.41087	773.20267	-1215.94765	-10.66351	1393.52921	-1075.69519	-73.92588	1206.08406	-1110.38841	-94.87957	1074.1214	-1159.8262	-106.75755	979.15062	-1192.87071	-53.53766	788.46313	-1145.56595	-112.15657	795.91431	-1210.8252	-120.15662	752.53036	-1161.59363	286.7527	959.25598	-1107.36389	51.65478	964.64241	-1129.84764	271.19852	999.20151	-1307.0784	95.69553	1020.06966	-1306.24588	332.05215	696.69113	-1202.27669	349.53419	530.12554	-1066.15608	312.2089	352.62161	-1113.88062	299.40107	232.12587	-1265.08644	224.98516	196.04969	-1351.6156	269.2647	85.43706	-1196.59424	58.27797	708.20274	-1330.00244	50.30816	500.28004	-1267.90688	114.79097	278.46724	-1275.3141	89.97324	120.55585	-1365.56122	151.87394	73.89436	-1422.61261	112.40616	65.49099	-1224.85489
54	2.267	250.308	1566.8042	-865.15976	80.84115	1544.29367	-869.05708	262.18058	1599.82559	-1011.80237	69.09905	1577.81769	-1017.22992	264.5882	1359.79111	-974.51607	117.04218	1346.86722	-966.8708	248.2288	1436.86981	-1110.16403	91.5496	1423.30597	-1103.26653	183.02692	1279.1436	-1196.70586	194.7072	1280.20416	-947.29332	192.39906	1174.84467	-955.20645	383.31177	1394.63455	-1027.9615	462.30289	1245.03792	-1102.37724	502.45621	1115.00221	-1155.04387	513.98956	980.96672	-1193.25935	437.26093	814.20944	-1165.9481	498.32741	818.08487	-1226.18835	489.92962	764.8526	-1180.5764	-10.94254	1384.88754	-1018.65379	-76.35962	1197.08687	-1046.22208	-99.54063	1063.58574	-1091.4035	-112.7599	967.34497	-1120.96497	-54.29887	778.90587	-1070.98961	-116.82013	783.39539	-1132.76978	-121.1805	741.61812	-1081.90651	281.26759	952.43217	-1049.24171	46.56735	953.01132	-1077.53082	270.68975	989.33121	-1250.05508	95.32314	1010.16487	-1253.34831	335.83893	693.92227	-1128.46809	345.92628	535.54264	-977.07367	310.32484	348.34263	-992.2509	300.45689	196.68146	-1111.83548	226.88704	140.83021	-1189.33609	272.90874	75.0962	-1010.61844	69.59579	712.01752	-1300.29449	51.98872	497.92847	-1255.43465	116.25722	277.19116	-1268.11462	92.57702	122.06236	-1362.64435	153.87691	76.53353	-1420.6665	114.75218	63.77059	-1223.01033
55	2.3	252.85305	1551.49536	-809.161	83.22397	1530.70114	-811.76529	263.99506	1582.90466	-956.36497	70.57208	1562.83646	-960.39658	265.17023	1340.74112	-919.03267	116.97995	1329.08188	-910.20081	247.64936	1421.16943	-1053.43956	90.10494	1408.85834	-1045.16113	180.27813	1264.69566	-1141.7482	194.4315	1261.86905	-893.22617	190.75371	1156.77628	-901.3385	383.41667	1375.0885	-973.40881	460.89867	1227.0211	-1051.39282	502.01859	1099.29688	-1106.89857	514.64619	966.48331	-1148.24387	440.17662	798.37311	-1124.04602	500.17719	804.21425	-1185.12207	492.3365	749.66705	-1141.35132	-11.52606	1369.69711	-959.37668	-78.31174	1181.55685	-981.96434	-104.37565	1047.00485	-1023.20541	-118.63248	949.814	-1049.35509	-56.38741	763.6525	-997.43401	-122.13614	765.58823	-1055.97656	-123.36058	725.67085	-1003.64243	274.56909	936.80244	-989.91615	42.21887	938.50548	-1026.65855	273.89889	973.89771	-1191.07285	98.15828	996.12442	-1200.97977	334.98268	684.22806	-1054.57375	344.03862	532.97283	-897.60139	311.0503	343.99513	-875.91324	303.49463	167.63096	-953.89755	231.03085	93.86286	-1015.00397	277.90142	74.2658	-825.38284	74.66891	710.71991	-1261.30226	54.2768	493.12656	-1233.16467	117.3433	275.0416	-1256.82594	97.23903	124.66604	-1358.65875	159.49435	82.1739	-1417.47452	116.4599	62.51693	-1220.45853
56	2.333	256.49435	1534.51904	-750.62653	86.54027	1516.16302	-751.54831	266.76548	1563.40439	-898.44063	73.02263	1546.06369	-900.60112	265.44165	1318.05649	-860.68153	116.66562	1307.6709	-851.72073	247.85683	1404.6936	-991.92528	89.14669	1393.65829	-983.19565	179.13481	1250.01953	-1083.72086	193.46975	1239.56802	-836.75362	188.89227	1134.72214	-845.95398	383.84007	1353.46527	-914.5649	460.03433	1204.55406	-997.81891	501.67191	1080.37979	-1055.62706	514.93095	948.89816	-1098.64014	443.03066	779.90952	-1076.92719	502.03537	787.35619	-1138.93074	495.07854	731.97372	-1096.37863	-11.62227	1351.72653	-897.96211	-79.15035	1163.32733	-917.81067	-108.53022	1028.54874	-955.94719	-123.75581	931.09756	-979.75883	-59.91745	746.33392	-924.47227	-127.42377	747.00569	-981.38657	-127.52954	708.21548	-928.44612	268.37088	917.98851	-927.8508	38.28315	925.77217	-972.25273	279.52747	955.66406	-1129.11148	104.00098	983.45764	-1146.10962	331.59653	666.61842	-989.35936	341.93199	521.06949	-828.08151	313.41429	341.52199	-769.36241	308.61998	152.12389	-799.01642	238.09565	65.13953	-839.61403	281.51569	90.97715	-648.38806	79.6624	709.83047	-1220.48065	54.53198	494.53487	-1211.62132	116.49938	276.0446	-1243.26889	101.05584	132.28649	-1355.35263	165.35969	92.78967	-1413.23624	116.94626	62.01836	-1220.13474
57	2.367	261.07992	1520.16083	-688.91167	91.02362	1503.82111	-689.25552	271.42885	1547.06482	-837.20276	77.31483	1531.8399	-838.61137	266.70452	1299.77188	-798.34259	117.68974	1289.83658	-790.43625	250.07736	1389.94934	-927.71721	91.17856	1379.97849	-919.32526	180.82947	1236.12579	-1020.65903	193.53073	1221.65054	-775.21492	188.64222	1116.9828	-783.74634	385.70236	1335.66452	-852.38541	459.05071	1186.18858	-939.87068	499.60072	1063.87207	-997.55966	514.22993	933.50372	-1042.74017	445.25768	762.80197	-1023.95012	503.93162	772.43423	-1085.8844	498.34969	716.49231	-1043.50143	-9.70821	1337.7449	-834.51591	-78.80829	1150.26459	-854.88548	-111.56981	1015.55954	-891.67412	-127.40929	917.98195	-912.97493	-64.79906	734.40056	-853.06236	-132.10027	734.26979	-910.19539	-132.49773	696.59737	-856.79985	264.67661	902.27486	-863.6425	36.61122	913.48427	-916.21574	284.94587	940.02083	-1064.74419	110.26279	971.78741	-1087.14806	330.76546	648.73367	-926.83235	336.70921	510.20992	-755.42648	310.25507	345.12207	-672.19948	311.06047	154.70604	-667.77267	243.91907	58.17146	-695.2108	281.23526	121.02724	-509.67911	88.88859	711.66428	-1171.62338	54.80196	494.86324	-1179.59846	114.81745	277.90966	-1225.25856	101.66957	143.20535	-1348.80157	167.14926	108.26417	-1407.16385	116.76457	61.66955	-1219.9173
